<svg xmlns="http://www.w3.org/2000/svg" width="13" height="11" viewBox="0 0 13 11">
  <g id="Hide" transform="translate(0 -0.332)" opacity="0.5">
    <path id="Hide-2" data-name="Hide" d="M1.159,10.86a.474.474,0,0,1-.058-.6l.02-.025L10.5.814a.167.167,0,0,0,.032-.038.182.182,0,0,0,.032-.039l.6-.6A.485.485,0,0,1,11.5,0a.468.468,0,0,1,.334.139.472.472,0,0,1,0,.675l-1.155,1.16a9.552,9.552,0,0,1,2.283,3.338.477.477,0,0,1,0,.375C11.6,8.862,9.187,10.758,6.5,10.758H6.492A5.928,5.928,0,0,1,3.062,9.625L1.831,10.86a.473.473,0,0,1-.337.14A.457.457,0,0,1,1.159,10.86ZM5.072,7.605A2.532,2.532,0,0,0,9.03,5.5a2.57,2.57,0,0,0-.437-1.434L7.9,4.764A1.588,1.588,0,0,1,5.763,6.91ZM.038,5.69a.487.487,0,0,1,0-.376C1.395,2.141,3.811.249,6.494.249H6.5A5.775,5.775,0,0,1,9.1.874L6.983,3A2.982,2.982,0,0,0,6.5,2.957,2.542,2.542,0,0,0,3.964,5.505a3.005,3.005,0,0,0,.045.484L1.661,8.347A10.293,10.293,0,0,1,.038,5.69Z" transform="translate(0 0.332)" fill="#06152b"/>
  </g>
</svg>
