<svg xmlns="http://www.w3.org/2000/svg" width="35.307" height="35.307" viewBox="0 0 35.307 35.307">
  <g id="رسائل" transform="translate(0)">
    <path id="Path_10328" data-name="Path 10328" d="M150.947,136.7a1.036,1.036,0,0,1-.722,1.771l-13.486.069a14.509,14.509,0,0,1-12.2-6.653c9.8.047,4.035.033,5.928.033a14.193,14.193,0,0,0,12.391-21.041,1,1,0,0,1,.2.072,14.527,14.527,0,0,1,4.665,22.566Z" transform="translate(-115.948 -103.234)" fill="#ebebff"/>
    <path id="Path_10329" data-name="Path 10329" d="M314.986,138.472l-13.486.069v-8.066a14.242,14.242,0,0,0,6.116-19.595,1,1,0,0,1,.2.072,14.527,14.527,0,0,1,4.665,22.566l3.226,3.183A1.036,1.036,0,0,1,314.986,138.472Z" transform="translate(-280.709 -103.234)" fill="#dcdcff"/>
    <path id="Path_10330" data-name="Path 10330" d="M14.516,0A14.517,14.517,0,0,0,3.534,24.009L.308,27.192a1.035,1.035,0,0,0,.722,1.771l13.06.062A14.516,14.516,0,1,0,14.516,0Z" transform="translate(0)" fill="#ffc107"/>
    <path id="Path_10331" data-name="Path 10331" d="M225.015,14.516A14.531,14.531,0,0,1,210.5,29.031V0A14.532,14.532,0,0,1,225.015,14.516Z" transform="translate(-195.984)" fill="#ffa000"/>
    <path id="Path_10332" data-name="Path 10332" d="M107.041,138.069h12.412a1.034,1.034,0,0,0,0-2.069H107.041a1.034,1.034,0,0,0,0,2.069Z" transform="translate(-98.697 -126.621)" fill="#ae6d00"/>
    <path id="Path_10333" data-name="Path 10333" d="M217.775,137.034a1.035,1.035,0,0,1-1.034,1.034H210.5V136h6.241A1.035,1.035,0,0,1,217.775,137.034Z" transform="translate(-195.984 -126.621)" fill="#ae6d00"/>
    <path id="Path_10334" data-name="Path 10334" d="M119.453,196H107.041a1.034,1.034,0,0,0,0,2.069h12.412a1.034,1.034,0,0,0,0-2.069Z" transform="translate(-98.697 -182.484)" fill="#ae6d00"/>
    <path id="Path_10335" data-name="Path 10335" d="M217.775,197.034a1.035,1.035,0,0,1-1.034,1.034H210.5V196h6.241A1.035,1.035,0,0,1,217.775,197.034Z" transform="translate(-195.984 -182.484)" fill="#ae6d00"/>
    <path id="Path_10336" data-name="Path 10336" d="M119.453,256H107.041a1.034,1.034,0,0,0,0,2.069h12.412a1.034,1.034,0,0,0,0-2.069Z" transform="translate(-98.697 -238.346)" fill="#ae6d00"/>
    <path id="Path_10337" data-name="Path 10337" d="M217.775,257.034a1.035,1.035,0,0,1-1.034,1.034H210.5V256h6.241A1.035,1.035,0,0,1,217.775,257.034Z" transform="translate(-195.984 -238.346)" fill="#ae6d00"/>
  </g>
</svg>
