<svg id="Group_16204" data-name="Group 16204" xmlns="http://www.w3.org/2000/svg" width="31.688" height="31.688" viewBox="0 0 31.688 31.688">
  <path id="Path_10339" data-name="Path 10339" d="M0,0H31.688V31.688H0Z" fill="none"/>
  <path id="Path_10340" data-name="Path 10340" d="M6,22.563V19.922a7.922,7.922,0,0,1,15.844,0v2.641a1.32,1.32,0,0,1-1.32,1.32H7.32A1.32,1.32,0,0,1,6,22.563Z" transform="translate(1.922 3.844)" fill="none" stroke="#6eb04f" stroke-linecap="round" stroke-linejoin="round" stroke-width="2"/>
  <path id="Path_10341" data-name="Path 10341" d="M6,4.32V6.961a7.922,7.922,0,1,0,15.844,0V4.32A1.32,1.32,0,0,0,20.524,3H7.32A1.32,1.32,0,0,0,6,4.32Z" transform="translate(1.922 0.961)" fill="none" stroke="#6eb04f" stroke-linecap="round" stroke-linejoin="round" stroke-width="2"/>
</svg>
