<svg id="Group_16206" data-name="Group 16206" xmlns="http://www.w3.org/2000/svg" width="31.688" height="31.688" viewBox="0 0 31.688 31.688">
  <path id="Path_10345" data-name="Path 10345" d="M0,0H31.688V31.688H0Z" fill="none"/>
  <path id="Path_10346" data-name="Path 10346" d="M4,5h9.242" transform="translate(1.281 1.602)" fill="none" stroke="#6eb04f" stroke-linecap="round" stroke-linejoin="round" stroke-width="2"/>
  <path id="Path_10347" data-name="Path 10347" d="M7,4c0,6.4,0,9.242.66,10.563" transform="translate(2.242 1.281)" fill="none" stroke="#6eb04f" stroke-linecap="round" stroke-linejoin="round" stroke-width="2"/>
  <path id="Path_10348" data-name="Path 10348" d="M11.922,8.66c0,3.018-2.641,5.942-4.621,5.942A3.151,3.151,0,0,1,4,11.961Q4,8,7.961,8c2.641,0,6.6.753,6.6,3.772a4.138,4.138,0,0,1-2.641,4.15" transform="translate(1.281 2.563)" fill="none" stroke="#6eb04f" stroke-linecap="round" stroke-linejoin="round" stroke-width="2"/>
  <path id="Path_10349" data-name="Path 10349" d="M12,22.883,17.281,11l5.281,11.883" transform="translate(3.844 3.524)" fill="none" stroke="#6eb04f" stroke-linecap="round" stroke-linejoin="round" stroke-width="2"/>
  <path id="Path_10350" data-name="Path 10350" d="M21.086,18H12.9" transform="translate(4.132 5.766)" fill="none" stroke="#6eb04f" stroke-linecap="round" stroke-linejoin="round" stroke-width="2"/>
</svg>
