<svg id="Icon_ionic-ios-close-circle-outline" data-name="Icon ionic-ios-close-circle-outline" xmlns="http://www.w3.org/2000/svg" width="23.694" height="23.694" viewBox="0 0 23.694 23.694">
  <path id="Path_97" data-name="Path 97" d="M12.612,19.45l2.812-2.812-2.812-2.812a.853.853,0,0,1,1.206-1.206l2.812,2.812,2.812-2.812a.853.853,0,0,1,1.206,1.206l-2.812,2.812,2.812,2.812a.824.824,0,0,1,0,1.206.847.847,0,0,1-1.206,0l-2.812-2.812-2.812,2.812a.857.857,0,0,1-1.206,0A.847.847,0,0,1,12.612,19.45Z" transform="translate(-4.781 -4.792)" fill="red"/>
  <path id="Path_98" data-name="Path 98" d="M15.222,4.97a10.248,10.248,0,1,0,7.251,3,10.185,10.185,0,0,0-7.251-3m0-1.595A11.847,11.847,0,1,1,3.375,15.222,11.845,11.845,0,0,1,15.222,3.375Z" transform="translate(-3.375 -3.375)" fill="red"/>
</svg>
