<svg id="Home" xmlns="http://www.w3.org/2000/svg" width="19" height="20" viewBox="0 0 19 20">
  <path id="Home-2" data-name="Home" d="M12.365,18.773V15.716A1.419,1.419,0,0,0,10.942,14.3H8.067a1.429,1.429,0,0,0-1.007.414,1.408,1.408,0,0,0-.417,1v3.058a1.213,1.213,0,0,1-.356.867,1.231,1.231,0,0,1-.871.36H3.456a3.46,3.46,0,0,1-2.443-1A3.41,3.41,0,0,1,0,16.578V7.867a2.473,2.473,0,0,1,.9-1.9L7.566.676a3.1,3.1,0,0,1,3.949.071l6.518,5.218A2.474,2.474,0,0,1,19,7.867v8.7A3.444,3.444,0,0,1,15.544,20H13.628a1.231,1.231,0,0,1-1.236-1.218Z" fill="#39acd5"/>
</svg>
