<svg id="Group_16379" data-name="Group 16379" xmlns="http://www.w3.org/2000/svg" width="24" height="24" viewBox="0 0 24 24">
  <path id="Path_10448" data-name="Path 10448" d="M0,0H24V24H0Z" fill="none"/>
  <circle id="Ellipse_221" data-name="Ellipse 221" cx="3" cy="3" r="3" transform="translate(12 12)" fill="none" stroke="#363636" stroke-linecap="round" stroke-linejoin="round" stroke-width="2"/>
  <path id="Path_10449" data-name="Path 10449" d="M13,17.5V22l2-1.5L17,22V17.5" fill="none" stroke="#363636" stroke-linecap="round" stroke-linejoin="round" stroke-width="2"/>
  <path id="Path_10450" data-name="Path 10450" d="M10,19H5a2,2,0,0,1-2-2V7A2.006,2.006,0,0,1,5,5H19a2,2,0,0,1,2,2V17a2,2,0,0,1-1,1.73" fill="none" stroke="#363636" stroke-linecap="round" stroke-linejoin="round" stroke-width="2"/>
  <line id="Line_17" data-name="Line 17" x2="12" transform="translate(6 9)" fill="none" stroke="#363636" stroke-linecap="round" stroke-linejoin="round" stroke-width="2"/>
  <line id="Line_18" data-name="Line 18" x2="3" transform="translate(6 12)" fill="none" stroke="#363636" stroke-linecap="round" stroke-linejoin="round" stroke-width="2"/>
  <line id="Line_19" data-name="Line 19" x2="2" transform="translate(6 15)" fill="none" stroke="#363636" stroke-linecap="round" stroke-linejoin="round" stroke-width="2"/>
</svg>
