<svg xmlns="http://www.w3.org/2000/svg" width="23.966" height="23.973" viewBox="0 0 23.966 23.973">
  <path id="Icon_ionic-ios-settings" data-name="Icon ionic-ios-settings" d="M26.488,16.483a3.084,3.084,0,0,1,1.978-2.877,12.224,12.224,0,0,0-1.479-3.564,3.125,3.125,0,0,1-1.254.268,3.077,3.077,0,0,1-2.815-4.331A12.187,12.187,0,0,0,19.36,4.5a3.081,3.081,0,0,1-5.754,0,12.224,12.224,0,0,0-3.564,1.479,3.077,3.077,0,0,1-2.815,4.331,3.024,3.024,0,0,1-1.254-.268A12.5,12.5,0,0,0,4.5,13.612a3.083,3.083,0,0,1,.006,5.754A12.224,12.224,0,0,0,5.985,22.93a3.078,3.078,0,0,1,4.063,4.063,12.3,12.3,0,0,0,3.564,1.479,3.076,3.076,0,0,1,5.742,0,12.224,12.224,0,0,0,3.564-1.479,3.081,3.081,0,0,1,4.063-4.063,12.3,12.3,0,0,0,1.479-3.564A3.1,3.1,0,0,1,26.488,16.483ZM16.539,21.47a4.993,4.993,0,1,1,4.993-4.993A4.992,4.992,0,0,1,16.539,21.47Z" transform="translate(-4.5 -4.5)" fill="#259f8b"/>
</svg>
